<?xml version="1.0" encoding="UTF-8"?>
<svg width="43px" height="41px" viewBox="0 0 43 41" version="1.1" xmlns="http://www.w3.org/2000/svg" xmlns:xlink="http://www.w3.org/1999/xlink">
    <!-- Generator: Sketch 45.1 (43504) - http://www.bohemiancoding.com/sketch -->
    <title>money</title>
    <desc>Created with Sketch.</desc>
    <defs>
        <linearGradient x1="50%" y1="100%" x2="50%" y2="0%" id="linearGradient-1">
            <stop stop-color="#1780FF" offset="0%"></stop>
            <stop stop-color="#12A0C7" offset="26.0342285%"></stop>
            <stop stop-color="#12A2C3" offset="32.0379792%"></stop>
            <stop stop-color="#05FA28" offset="100%"></stop>
        </linearGradient>
        <ellipse id="path-2" cx="21.3506944" cy="20.5" rx="21.3506944" ry="20.5"></ellipse>
    </defs>
    <g id="Page-1" stroke="none" stroke-width="1" fill="none" fill-rule="evenodd">
        <g id="New-Dashboard" transform="translate(-542.000000, -978.000000)">
            <g id="money" transform="translate(542.000000, 978.000000)">
                <g id="Oval-7">
                    <use fill="#FFFFFF" fill-rule="evenodd" xlink:href="#path-2"></use>
                    <ellipse stroke="url(#linearGradient-1)" stroke-width="3" cx="21.3506944" cy="20.5" rx="19.8506944" ry="19"></ellipse>
                </g>
                <path d="M21.2665784,6.1544692 C21.4853174,6.12912954 21.7037579,6.2131976 21.8547564,6.36463937 L23.1659962,7.67574345 L24.8884533,6.96146301 C25.2331238,6.81866654 25.6783605,7.00349704 25.8213017,7.34811648 L26.5357096,9.07926278 L28.3930508,9.07926278 C28.7630866,9.07926278 29.1077571,9.41553504 29.1077571,9.78519604 L29.1077571,11.6424444 L30.8302142,12.3567249 C31.1748847,12.4995213 31.3599026,12.936556 31.2169613,13.2811755 L30.5025534,15.0039746 L31.8218505,16.3234258 C32.074012,16.5839772 32.074012,17.0627478 31.8218505,17.3232992 L30.5025534,18.6427505 L31.2169613,20.3572024 C31.3596042,20.7015237 31.1748847,21.1472037 30.8302142,21.2900002 L29.1077571,22.0042806 L29.1077571,22.9624181 L31.9313692,27.8535697 C32.0575992,28.072087 32.0575992,28.3496309 31.9313692,28.5678501 C31.8051392,28.7783184 31.5613334,28.9211149 31.3178259,28.9211149 L27.9227472,28.9211149 L26.1746263,31.8876443 C26.0486947,32.0981126 25.8132445,32.2409091 25.561083,32.2409091 C25.3172771,32.2409091 25.0737697,32.0978145 24.9475397,31.8876443 L22.1322832,27.0048399 L21.8547564,27.2823838 C21.5942392,27.5509843 21.1069259,27.5509843 20.8464087,27.2823838 L20.5688818,27.0048399 L17.7536254,31.8876443 C17.6273954,32.0981126 17.383888,32.2409091 17.1400821,32.2409091 C16.8879206,32.2409091 16.6524704,32.0978145 16.5265388,31.8876443 L14.7784179,28.9211149 L11.3833392,28.9211149 C11.1395333,28.9211149 10.8960258,28.7780203 10.7697959,28.5678501 C10.6438643,28.3493328 10.6438643,28.0717889 10.7697959,27.8535697 L13.593408,22.9624181 L13.593408,22.0042806 L11.8706525,21.2900002 C11.5262804,21.1469056 11.3412625,20.7015237 11.4842038,20.3572024 L12.1986117,18.6427505 L10.8793146,17.3232992 C10.627153,17.063046 10.627153,16.5839772 10.8793146,16.3234258 L12.1986117,15.0039746 L11.4842038,13.2811755 C11.3412625,12.936556 11.525982,12.4995213 11.8706525,12.3567249 L13.593408,11.6424444 L13.593408,9.78519604 C13.593408,9.41553504 13.9380785,9.07926278 14.3078159,9.07926278 L16.165157,9.07926278 L16.8795649,7.34811648 C17.0225062,7.00349704 17.4677428,6.81866654 17.8124133,6.96146301 L19.5351688,7.67574345 L20.8464087,6.36463937 C20.955629,6.24688445 21.1069259,6.17116357 21.2665784,6.1544692 Z M21.3506944,20.5 C23.709027,20.5 25.6208333,18.6643675 25.6208333,16.4 C25.6208333,14.1356325 23.709027,12.3 21.3506944,12.3 C18.9923619,12.3 17.0805556,14.1356325 17.0805556,16.4 C17.0805556,18.6643675 18.9923619,20.5 21.3506944,20.5 Z" id="Shape" fill="#44D378"></path>
            </g>
        </g>
    </g>
</svg>